<?xml version="1.0" encoding="UTF-8"?>
<!DOCTYPE svg PUBLIC "-//W3C//DTD SVG 1.1//EN" "http://www.w3.org/Graphics/SVG/1.1/DTD/svg11.dtd">
<svg xmlns="http://www.w3.org/2000/svg" version="1.1" width="256px" height="256px" style="shape-rendering:geometricPrecision; text-rendering:geometricPrecision; image-rendering:optimizeQuality; fill-rule:evenodd; clip-rule:evenodd" xmlns:xlink="http://www.w3.org/1999/xlink">
<g><path style="opacity:0.997" fill="#fa5e1c" d="M 31.5,-0.5 C 95.5,-0.5 159.5,-0.5 223.5,-0.5C 234.751,2.91252 243.585,9.57918 250,19.5C 252.146,23.4755 253.98,27.4755 255.5,31.5C 255.5,95.5 255.5,159.5 255.5,223.5C 252.087,234.751 245.421,243.585 235.5,250C 231.525,252.146 227.525,253.98 223.5,255.5C 159.5,255.5 95.5,255.5 31.5,255.5C 20.2486,252.087 11.4153,245.421 5,235.5C 2.85371,231.525 1.02038,227.525 -0.5,223.5C -0.5,159.5 -0.5,95.5 -0.5,31.5C 2.91252,20.2486 9.57918,11.4153 19.5,5C 23.4755,2.85371 27.4755,1.02038 31.5,-0.5 Z"/></g>
<g><path style="opacity:1" fill="#fefbfa" d="M 150.5,7.5 C 192.069,6.51714 220.569,25.1838 236,63.5C 246.433,107.783 231.933,140.95 192.5,163C 171.046,171.278 149.379,171.612 127.5,164C 122.477,161.316 117.477,158.983 112.5,157C 108.657,161.674 104.657,166.174 100.5,170.5C 100.417,176.467 98.584,181.8 95,186.5C 78.1667,205.333 61.3333,224.167 44.5,243C 32.1847,250.925 22.6847,248.425 16,235.5C 14.6456,229.332 15.6456,223.666 19,218.5C 35.5,200 52,181.5 68.5,163C 72.5894,158.789 77.5894,156.456 83.5,156C 87.6481,151.018 91.9814,146.184 96.5,141.5C 79.8262,119.796 74.3262,95.4629 80,68.5C 91.3469,33.9784 114.847,13.645 150.5,7.5 Z"/></g>
<g><path style="opacity:1" fill="#fb5f1d" d="M 146.5,23.5 C 180.551,20.4342 205.051,34.1009 220,64.5C 228.728,89.4653 224.728,112.132 208,132.5C 186.881,153.653 162.048,159.487 133.5,150C 100.039,132.572 87.5386,105.406 96,68.5C 105.212,44.8307 122.045,29.8307 146.5,23.5 Z"/></g>
<g><path style="opacity:1" fill="#fdaa87" d="M 127.5,71.5 C 122.968,71.1818 118.634,71.5151 114.5,72.5C 112.571,72.7692 110.905,72.2692 109.5,71C 115.681,70.1808 121.681,70.3475 127.5,71.5 Z"/></g>
<g><path style="opacity:1" fill="#fff6f2" d="M 184.5,77.5 C 185.268,75.2854 185.935,72.9521 186.5,70.5C 187.167,69.1667 187.833,69.1667 188.5,70.5C 189.065,72.9521 189.732,75.2854 190.5,77.5C 192.027,77.427 193.027,78.0937 193.5,79.5C 189.427,81.1349 185.094,82.1349 180.5,82.5C 177.686,82.4027 175.686,83.5693 174.5,86C 178.114,92.6904 179.448,99.857 178.5,107.5C 177.5,107.5 176.5,107.5 175.5,107.5C 176.895,99.8972 174.895,93.3972 169.5,88C 166.854,87.5026 164.187,87.3359 161.5,87.5C 161.5,88.5 161.5,89.5 161.5,90.5C 163.167,90.5 164.833,90.5 166.5,90.5C 166.5,93.5 166.5,96.5 166.5,99.5C 162.167,99.5 157.833,99.5 153.5,99.5C 153.5,96.8333 153.5,94.1667 153.5,91.5C 155.099,91.7678 156.432,91.4345 157.5,90.5C 157.5,89.5 157.5,88.5 157.5,87.5C 153.993,86.9935 150.826,87.6602 148,89.5C 143.764,94.7032 141.598,100.703 141.5,107.5C 140.914,107.291 140.414,106.957 140,106.5C 139.333,103.167 139.333,99.8333 140,96.5C 141.94,92.6391 143.273,88.6391 144,84.5C 143.25,83.8742 142.416,83.3742 141.5,83C 135.843,82.5006 130.176,82.3339 124.5,82.5C 123.756,79.0504 125.09,77.3838 128.5,77.5C 127.894,74.0844 128.894,71.4178 131.5,69.5C 132.086,69.7093 132.586,70.0426 133,70.5C 133.497,72.8098 133.663,75.1432 133.5,77.5C 141.806,75.7333 150.306,74.7333 159,74.5C 167.632,74.6127 176.132,75.6127 184.5,77.5 Z"/></g>
<g><path style="opacity:1" fill="#fdab88" d="M 135.5,71.5 C 141.013,70.1843 146.68,70.1843 152.5,71.5C 150.955,72.4519 149.288,72.7852 147.5,72.5C 143.702,71.5166 139.702,71.1832 135.5,71.5 Z"/></g>
<g><path style="opacity:1" fill="#fdac8a" d="M 183.5,71.5 C 179.298,71.1832 175.298,71.5166 171.5,72.5C 169.712,72.7852 168.045,72.4519 166.5,71.5C 172.32,70.1843 177.987,70.1843 183.5,71.5 Z"/></g>
<g><path style="opacity:1" fill="#fdab89" d="M 191.5,71.5 C 197.013,70.1843 202.68,70.1843 208.5,71.5C 206.955,72.4519 205.288,72.7852 203.5,72.5C 199.702,71.5166 195.702,71.1832 191.5,71.5 Z"/></g>
<g><path style="opacity:1" fill="#fff3ee" d="M 114.5,72.5 C 118.634,71.5151 122.968,71.1818 127.5,71.5C 127.38,72.5862 126.713,73.2528 125.5,73.5C 121.882,72.6536 118.215,72.3203 114.5,72.5 Z"/></g>
<g><path style="opacity:1" fill="#ffefe8" d="M 135.5,71.5 C 139.702,71.1832 143.702,71.5166 147.5,72.5C 143.958,72.3802 140.458,72.7135 137,73.5C 136.167,73.1667 135.333,72.8333 134.5,72.5C 134.624,71.8933 134.957,71.56 135.5,71.5 Z"/></g>
<g><path style="opacity:1" fill="#fff4ef" d="M 171.5,72.5 C 175.298,71.5166 179.298,71.1832 183.5,71.5C 183.5,72.1667 183.5,72.8333 183.5,73.5C 179.534,72.8379 175.534,72.5045 171.5,72.5 Z"/></g>
<g><path style="opacity:1" fill="#fda885" d="M 186.5,70.5 C 185.935,72.9521 185.268,75.2854 184.5,77.5C 184.768,75.901 184.434,74.5676 183.5,73.5C 183.5,72.8333 183.5,72.1667 183.5,71.5C 184.391,70.8902 185.391,70.5569 186.5,70.5 Z"/></g>
<g><path style="opacity:1" fill="#fdac8a" d="M 188.5,70.5 C 189.609,70.5569 190.609,70.8902 191.5,71.5C 191.5,72.1667 191.5,72.8333 191.5,73.5C 190.566,74.5676 190.232,75.901 190.5,77.5C 189.732,75.2854 189.065,72.9521 188.5,70.5 Z"/></g>
<g><path style="opacity:1" fill="#fff4ef" d="M 191.5,71.5 C 195.702,71.1832 199.702,71.5166 203.5,72.5C 199.466,72.5045 195.466,72.8379 191.5,73.5C 191.5,72.8333 191.5,72.1667 191.5,71.5 Z"/></g>
<g><path style="opacity:1" fill="#fdac8a" d="M 193.5,79.5 C 194.404,80.209 194.737,81.209 194.5,82.5C 189.833,82.5 185.167,82.5 180.5,82.5C 185.094,82.1349 189.427,81.1349 193.5,79.5 Z"/></g>
<g><path style="opacity:1" fill="#fdad8c" d="M 157.5,90.5 C 156.432,91.4345 155.099,91.7678 153.5,91.5C 153.5,94.1667 153.5,96.8333 153.5,99.5C 152.523,96.7131 152.19,93.7131 152.5,90.5C 154.167,90.5 155.833,90.5 157.5,90.5 Z"/></g>
<g><path style="opacity:1" fill="#fc753d" d="M 157.5,92.5 C 162.587,92.2845 163.587,94.1178 160.5,98C 156.83,97.8362 155.83,96.0029 157.5,92.5 Z"/></g>
<g><path style="opacity:1" fill="#fee5da" d="M 158.5,94.5 C 160.337,94.6395 160.67,95.3061 159.5,96.5C 158.702,96.0431 158.369,95.3764 158.5,94.5 Z"/></g>
</svg>
